<?xml version="1.0" standalone="no"?>
<!DOCTYPE svg PUBLIC "-//W3C//DTD SVG 1.1//EN" "http://www.w3.org/Graphics/SVG/1.1/DTD/svg11.dtd">

<svg width="800" height="600" version="1.1" xmlns="http://www.w3.org/2000/svg">
	<ellipse stroke="black" stroke-width="1" fill="none" cx="47.5" cy="299.5" rx="30" ry="30"/>
	<text x="37.5" y="305.5" font-family="Times New Roman" font-size="20">q1</text>
	<ellipse stroke="black" stroke-width="1" fill="none" cx="191.5" cy="299.5" rx="30" ry="30"/>
	<text x="181.5" y="305.5" font-family="Times New Roman" font-size="20">q2</text>
	<ellipse stroke="black" stroke-width="1" fill="none" cx="273.5" cy="299.5" rx="30" ry="30"/>
	<text x="263.5" y="305.5" font-family="Times New Roman" font-size="20">q3</text>
	<ellipse stroke="black" stroke-width="1" fill="none" cx="377.5" cy="299.5" rx="30" ry="30"/>
	<text x="367.5" y="305.5" font-family="Times New Roman" font-size="20">q4</text>
	<ellipse stroke="black" stroke-width="1" fill="none" cx="468.5" cy="299.5" rx="30" ry="30"/>
	<text x="458.5" y="305.5" font-family="Times New Roman" font-size="20">q5</text>
	<ellipse stroke="black" stroke-width="1" fill="none" cx="567.5" cy="299.5" rx="30" ry="30"/>
	<text x="552.5" y="305.5" font-family="Times New Roman" font-size="20">q10</text>
	<ellipse stroke="black" stroke-width="1" fill="none" cx="567.5" cy="400.5" rx="30" ry="30"/>
	<text x="552.5" y="406.5" font-family="Times New Roman" font-size="20">q11</text>
	<ellipse stroke="black" stroke-width="1" fill="none" cx="654.5" cy="400.5" rx="30" ry="30"/>
	<text x="639.5" y="406.5" font-family="Times New Roman" font-size="20">q12</text>
	<ellipse stroke="black" stroke-width="1" fill="none" cx="654.5" cy="400.5" rx="24" ry="24"/>
	<ellipse stroke="black" stroke-width="1" fill="none" cx="302.5" cy="217.5" rx="30" ry="30"/>
	<text x="292.5" y="223.5" font-family="Times New Roman" font-size="20">q6</text>
	<ellipse stroke="black" stroke-width="1" fill="none" cx="369.5" cy="163.5" rx="30" ry="30"/>
	<text x="359.5" y="169.5" font-family="Times New Roman" font-size="20">q7</text>
	<ellipse stroke="black" stroke-width="1" fill="none" cx="408.5" cy="235.5" rx="30" ry="30"/>
	<text x="398.5" y="241.5" font-family="Times New Roman" font-size="20">q8</text>
	<ellipse stroke="black" stroke-width="1" fill="none" cx="130.5" cy="456.5" rx="30" ry="30"/>
	<text x="120.5" y="462.5" font-family="Times New Roman" font-size="20">q9</text>
	<ellipse stroke="black" stroke-width="1" fill="none" cx="216.5" cy="456.5" rx="30" ry="30"/>
	<text x="201.5" y="462.5" font-family="Times New Roman" font-size="20">q13</text>
	<ellipse stroke="black" stroke-width="1" fill="none" cx="302.5" cy="456.5" rx="30" ry="30"/>
	<text x="287.5" y="462.5" font-family="Times New Roman" font-size="20">q14</text>
	<ellipse stroke="black" stroke-width="1" fill="none" cx="377.5" cy="392.5" rx="30" ry="30"/>
	<text x="362.5" y="398.5" font-family="Times New Roman" font-size="20">q17</text>
	<ellipse stroke="black" stroke-width="1" fill="none" cx="387.5" cy="456.5" rx="30" ry="30"/>
	<text x="372.5" y="462.5" font-family="Times New Roman" font-size="20">q15</text>
	<ellipse stroke="black" stroke-width="1" fill="none" cx="478.5" cy="456.5" rx="30" ry="30"/>
	<text x="463.5" y="462.5" font-family="Times New Roman" font-size="20">q16</text>
	<ellipse stroke="black" stroke-width="1" fill="none" cx="177.5" cy="154.5" rx="30" ry="30"/>
	<text x="162.5" y="160.5" font-family="Times New Roman" font-size="20">q18</text>
	<ellipse stroke="black" stroke-width="1" fill="none" cx="273.5" cy="154.5" rx="30" ry="30"/>
	<text x="258.5" y="160.5" font-family="Times New Roman" font-size="20">q19</text>
	<ellipse stroke="black" stroke-width="1" fill="none" cx="356.5" cy="77.5" rx="30" ry="30"/>
	<text x="341.5" y="83.5" font-family="Times New Roman" font-size="20">q20</text>
	<ellipse stroke="black" stroke-width="1" fill="none" cx="567.5" cy="183.5" rx="30" ry="30"/>
	<text x="552.5" y="189.5" font-family="Times New Roman" font-size="20">q23</text>
	<ellipse stroke="black" stroke-width="1" fill="none" cx="575.5" cy="35.5" rx="30" ry="30"/>
	<text x="560.5" y="41.5" font-family="Times New Roman" font-size="20">q22</text>
	<ellipse stroke="black" stroke-width="1" fill="none" cx="450.5" cy="35.5" rx="30" ry="30"/>
	<text x="435.5" y="41.5" font-family="Times New Roman" font-size="20">q21</text>
	<ellipse stroke="black" stroke-width="1" fill="none" cx="47.5" cy="35.5" rx="30" ry="30"/>
	<text x="32.5" y="41.5" font-family="Times New Roman" font-size="20">q24</text>
	<ellipse stroke="black" stroke-width="1" fill="none" cx="148.5" cy="35.5" rx="30" ry="30"/>
	<text x="133.5" y="41.5" font-family="Times New Roman" font-size="20">q25</text>
	<ellipse stroke="black" stroke-width="1" fill="none" cx="252.5" cy="35.5" rx="30" ry="30"/>
	<text x="237.5" y="41.5" font-family="Times New Roman" font-size="20">q26</text>
	<ellipse stroke="black" stroke-width="1" fill="none" cx="109.5" cy="564.5" rx="30" ry="30"/>
	<text x="94.5" y="570.5" font-family="Times New Roman" font-size="20">q27</text>
	<ellipse stroke="black" stroke-width="1" fill="none" cx="200.5" cy="564.5" rx="30" ry="30"/>
	<text x="185.5" y="570.5" font-family="Times New Roman" font-size="20">q28</text>
	<ellipse stroke="black" stroke-width="1" fill="none" cx="287.5" cy="564.5" rx="30" ry="30"/>
	<text x="272.5" y="570.5" font-family="Times New Roman" font-size="20">q29</text>
	<ellipse stroke="black" stroke-width="1" fill="none" cx="369.5" cy="564.5" rx="30" ry="30"/>
	<text x="354.5" y="570.5" font-family="Times New Roman" font-size="20">q30</text>
	<ellipse stroke="black" stroke-width="1" fill="none" cx="468.5" cy="564.5" rx="30" ry="30"/>
	<text x="453.5" y="570.5" font-family="Times New Roman" font-size="20">q31</text>
	<ellipse stroke="black" stroke-width="1" fill="none" cx="551.5" cy="564.5" rx="30" ry="30"/>
	<text x="536.5" y="570.5" font-family="Times New Roman" font-size="20">q32</text>
	<ellipse stroke="black" stroke-width="1" fill="none" cx="654.5" cy="564.5" rx="30" ry="30"/>
	<text x="639.5" y="570.5" font-family="Times New Roman" font-size="20">q33</text>
	<ellipse stroke="black" stroke-width="1" fill="none" cx="741.5" cy="564.5" rx="30" ry="30"/>
	<text x="726.5" y="570.5" font-family="Times New Roman" font-size="20">q34</text>
	<ellipse stroke="black" stroke-width="1" fill="none" cx="741.5" cy="448.5" rx="30" ry="30"/>
	<text x="726.5" y="454.5" font-family="Times New Roman" font-size="20">q35</text>
	<ellipse stroke="black" stroke-width="1" fill="none" cx="741.5" cy="359.5" rx="30" ry="30"/>
	<text x="726.5" y="365.5" font-family="Times New Roman" font-size="20">q36</text>
	<ellipse stroke="black" stroke-width="1" fill="none" cx="741.5" cy="264.5" rx="30" ry="30"/>
	<text x="726.5" y="270.5" font-family="Times New Roman" font-size="20">q37</text>
	<ellipse stroke="black" stroke-width="1" fill="none" cx="734.5" cy="143.5" rx="30" ry="30"/>
	<text x="719.5" y="149.5" font-family="Times New Roman" font-size="20">q38</text>
	<polygon stroke="black" stroke-width="1" points="77.5,299.5 161.5,299.5"/>
	<polygon fill="black" stroke-width="1" points="161.5,299.5 153.5,294.5 153.5,304.5"/>
	<text x="80.5" y="320.5" font-family="Times New Roman" font-size="20">Edif,Asig</text>
	<polygon stroke="black" stroke-width="1" points="221.5,299.5 243.5,299.5"/>
	<polygon fill="black" stroke-width="1" points="243.5,299.5 235.5,294.5 235.5,304.5"/>
	<text x="229.5" y="320.5" font-family="Times New Roman" font-size="20">(</text>
	<polygon stroke="black" stroke-width="1" points="303.5,299.5 347.5,299.5"/>
	<polygon fill="black" stroke-width="1" points="347.5,299.5 339.5,294.5 339.5,304.5"/>
	<text x="314.5" y="320.5" font-family="Times New Roman" font-size="20">txt</text>
	<polygon stroke="black" stroke-width="1" points="407.5,299.5 438.5,299.5"/>
	<polygon fill="black" stroke-width="1" points="438.5,299.5 430.5,294.5 430.5,304.5"/>
	<text x="420.5" y="320.5" font-family="Times New Roman" font-size="20">,</text>
	<polygon stroke="black" stroke-width="1" points="498.5,299.5 537.5,299.5"/>
	<polygon fill="black" stroke-width="1" points="537.5,299.5 529.5,294.5 529.5,304.5"/>
	<text x="507.5" y="320.5" font-family="Times New Roman" font-size="20">txt</text>
	<polygon stroke="black" stroke-width="1" points="567.5,329.5 567.5,370.5"/>
	<polygon fill="black" stroke-width="1" points="567.5,370.5 572.5,362.5 562.5,362.5"/>
	<text x="555.5" y="356.5" font-family="Times New Roman" font-size="20">)</text>
	<polygon stroke="black" stroke-width="1" points="597.5,400.5 624.5,400.5"/>
	<polygon fill="black" stroke-width="1" points="624.5,400.5 616.5,395.5 616.5,405.5"/>
	<text x="608.5" y="421.5" font-family="Times New Roman" font-size="20">;</text>
	<polygon stroke="black" stroke-width="1" points="76.06,290.316 273.94,226.684"/>
	<polygon fill="black" stroke-width="1" points="273.94,226.684 264.794,224.373 267.855,233.893"/>
	<text x="108.5" y="247.5" font-family="Times New Roman" font-size="20">Rec,Alu</text>
	<path stroke="black" stroke-width="1" fill="none" d="M 321.566,194.41 A 142.022,142.022 0 0 1 342.887,177.227"/>
	<polygon fill="black" stroke-width="1" points="342.887,177.227 333.456,177.446 338.951,185.8"/>
	<text x="320.5" y="176.5" font-family="Times New Roman" font-size="20">(</text>
	<path stroke="black" stroke-width="1" fill="none" d="M 390.756,184.485 A 92.765,92.765 0 0 1 402.536,206.232"/>
	<polygon fill="black" stroke-width="1" points="402.536,206.232 404.372,196.978 395.023,200.527"/>
	<text x="404.5" y="189.5" font-family="Times New Roman" font-size="20">txt</text>
	<polygon stroke="black" stroke-width="1" points="381.392,248.351 300.608,286.649"/>
	<polygon fill="black" stroke-width="1" points="300.608,286.649 309.979,287.74 305.695,278.704"/>
	<text x="331.5" y="258.5" font-family="Times New Roman" font-size="20">,</text>
	<polygon stroke="black" stroke-width="1" points="61.521,326.022 116.479,429.978"/>
	<polygon fill="black" stroke-width="1" points="116.479,429.978 117.16,420.569 108.32,425.243"/>
	<text x="31.5" y="395.5" font-family="Times New Roman" font-size="20">Grupo</text>
	<polygon stroke="black" stroke-width="1" points="160.5,456.5 186.5,456.5"/>
	<polygon fill="black" stroke-width="1" points="186.5,456.5 178.5,451.5 178.5,461.5"/>
	<text x="170.5" y="477.5" font-family="Times New Roman" font-size="20">(</text>
	<polygon stroke="black" stroke-width="1" points="246.5,456.5 272.5,456.5"/>
	<polygon fill="black" stroke-width="1" points="272.5,456.5 264.5,451.5 264.5,461.5"/>
	<text x="248.5" y="477.5" font-family="Times New Roman" font-size="20">txt</text>
	<polygon stroke="black" stroke-width="1" points="377.5,362.5 377.5,329.5"/>
	<polygon fill="black" stroke-width="1" points="377.5,329.5 372.5,337.5 382.5,337.5"/>
	<text x="382.5" y="352.5" font-family="Times New Roman" font-size="20">num</text>
	<polygon stroke="black" stroke-width="1" points="332.5,456.5 357.5,456.5"/>
	<polygon fill="black" stroke-width="1" points="357.5,456.5 349.5,451.5 349.5,461.5"/>
	<text x="342.5" y="477.5" font-family="Times New Roman" font-size="20">,</text>
	<polygon stroke="black" stroke-width="1" points="417.5,456.5 448.5,456.5"/>
	<polygon fill="black" stroke-width="1" points="448.5,456.5 440.5,451.5 440.5,461.5"/>
	<text x="422.5" y="477.5" font-family="Times New Roman" font-size="20">txt</text>
	<polygon stroke="black" stroke-width="1" points="453.159,440.442 402.841,408.558"/>
	<polygon fill="black" stroke-width="1" points="402.841,408.558 406.922,417.063 412.275,408.616"/>
	<text x="433.5" y="415.5" font-family="Times New Roman" font-size="20">,</text>
	<polygon stroke="black" stroke-width="1" points="67.526,277.163 157.474,176.837"/>
	<polygon fill="black" stroke-width="1" points="157.474,176.837 148.41,179.456 155.856,186.131"/>
	<text x="67.5" y="218.5" font-family="Times New Roman" font-size="20">Hora</text>
	<polygon stroke="black" stroke-width="1" points="207.5,154.5 243.5,154.5"/>
	<polygon fill="black" stroke-width="1" points="243.5,154.5 235.5,149.5 235.5,159.5"/>
	<text x="222.5" y="175.5" font-family="Times New Roman" font-size="20">(</text>
	<polygon stroke="black" stroke-width="1" points="295.493,134.097 334.507,97.903"/>
	<polygon fill="black" stroke-width="1" points="334.507,97.903 325.241,99.679 332.042,107.01"/>
	<text x="320.5" y="136.5" font-family="Times New Roman" font-size="20">txt</text>
	<polygon stroke="black" stroke-width="1" points="383.89,65.262 423.11,47.738"/>
	<polygon fill="black" stroke-width="1" points="423.11,47.738 413.766,46.437 417.845,55.567"/>
	<text x="408.5" y="77.5" font-family="Times New Roman" font-size="20">,</text>
	<polygon stroke="black" stroke-width="1" points="480.5,35.5 545.5,35.5"/>
	<polygon fill="black" stroke-width="1" points="545.5,35.5 537.5,30.5 537.5,40.5"/>
	<text x="502.5" y="56.5" font-family="Times New Roman" font-size="20">txt</text>
	<polygon stroke="black" stroke-width="1" points="573.881,65.456 569.119,153.544"/>
	<polygon fill="black" stroke-width="1" points="569.119,153.544 574.544,145.825 564.558,145.286"/>
	<text x="560.5" y="115.5" font-family="Times New Roman" font-size="20">,</text>
	<polygon stroke="black" stroke-width="1" points="567.5,213.5 567.5,269.5"/>
	<polygon fill="black" stroke-width="1" points="567.5,269.5 572.5,261.5 562.5,261.5"/>
	<text x="526.5" y="247.5" font-family="Times New Roman" font-size="20">num</text>
	<polygon stroke="black" stroke-width="1" points="47.5,269.5 47.5,65.5"/>
	<polygon fill="black" stroke-width="1" points="47.5,65.5 42.5,73.5 52.5,73.5"/>
	<text x="52.5" y="173.5" font-family="Times New Roman" font-size="20">Mat,Aula</text>
	<polygon stroke="black" stroke-width="1" points="77.5,35.5 118.5,35.5"/>
	<polygon fill="black" stroke-width="1" points="118.5,35.5 110.5,30.5 110.5,40.5"/>
	<text x="94.5" y="56.5" font-family="Times New Roman" font-size="20">(</text>
	<polygon stroke="black" stroke-width="1" points="178.5,35.5 222.5,35.5"/>
	<polygon fill="black" stroke-width="1" points="222.5,35.5 214.5,30.5 214.5,40.5"/>
	<text x="189.5" y="56.5" font-family="Times New Roman" font-size="20">txt</text>
	<polygon stroke="black" stroke-width="1" points="257.714,65.044 268.286,124.956"/>
	<polygon fill="black" stroke-width="1" points="268.286,124.956 271.82,116.209 261.972,117.947"/>
	<text x="250.5" y="103.5" font-family="Times New Roman" font-size="20">,</text>
	<polygon stroke="black" stroke-width="1" points="54.334,328.711 102.666,535.289"/>
	<polygon fill="black" stroke-width="1" points="102.666,535.289 105.712,526.36 95.975,528.638"/>
	<text x="5.5" y="442.5" font-family="Times New Roman" font-size="20">Maestro</text>
	<polygon stroke="black" stroke-width="1" points="139.5,564.5 170.5,564.5"/>
	<polygon fill="black" stroke-width="1" points="170.5,564.5 162.5,559.5 162.5,569.5"/>
	<text x="151.5" y="585.5" font-family="Times New Roman" font-size="20">(</text>
	<polygon stroke="black" stroke-width="1" points="230.5,564.5 257.5,564.5"/>
	<polygon fill="black" stroke-width="1" points="257.5,564.5 249.5,559.5 249.5,569.5"/>
	<text x="233.5" y="585.5" font-family="Times New Roman" font-size="20">txt</text>
	<polygon stroke="black" stroke-width="1" points="317.5,564.5 339.5,564.5"/>
	<polygon fill="black" stroke-width="1" points="339.5,564.5 331.5,559.5 331.5,569.5"/>
	<text x="326.5" y="585.5" font-family="Times New Roman" font-size="20">,</text>
	<polygon stroke="black" stroke-width="1" points="399.5,564.5 438.5,564.5"/>
	<polygon fill="black" stroke-width="1" points="438.5,564.5 430.5,559.5 430.5,569.5"/>
	<text x="408.5" y="585.5" font-family="Times New Roman" font-size="20">txt</text>
	<polygon stroke="black" stroke-width="1" points="498.5,564.5 521.5,564.5"/>
	<polygon fill="black" stroke-width="1" points="521.5,564.5 513.5,559.5 513.5,569.5"/>
	<text x="507.5" y="585.5" font-family="Times New Roman" font-size="20">,</text>
	<polygon stroke="black" stroke-width="1" points="581.5,564.5 624.5,564.5"/>
	<polygon fill="black" stroke-width="1" points="624.5,564.5 616.5,559.5 616.5,569.5"/>
	<text x="585.5" y="585.5" font-family="Times New Roman" font-size="20">num</text>
	<polygon stroke="black" stroke-width="1" points="684.5,564.5 711.5,564.5"/>
	<polygon fill="black" stroke-width="1" points="711.5,564.5 703.5,559.5 703.5,569.5"/>
	<text x="695.5" y="585.5" font-family="Times New Roman" font-size="20">,</text>
	<polygon stroke="black" stroke-width="1" points="741.5,534.5 741.5,478.5"/>
	<polygon fill="black" stroke-width="1" points="741.5,478.5 736.5,486.5 746.5,486.5"/>
	<text x="746.5" y="512.5" font-family="Times New Roman" font-size="20">num</text>
	<polygon stroke="black" stroke-width="1" points="741.5,418.5 741.5,389.5"/>
	<polygon fill="black" stroke-width="1" points="741.5,389.5 736.5,397.5 746.5,397.5"/>
	<text x="731.5" y="410.5" font-family="Times New Roman" font-size="20">,</text>
	<polygon stroke="black" stroke-width="1" points="741.5,329.5 741.5,294.5"/>
	<polygon fill="black" stroke-width="1" points="741.5,294.5 736.5,302.5 746.5,302.5"/>
	<text x="746.5" y="318.5" font-family="Times New Roman" font-size="20">num</text>
	<polygon stroke="black" stroke-width="1" points="739.767,234.55 736.233,173.45"/>
	<polygon fill="black" stroke-width="1" points="736.233,173.45 731.703,181.725 741.686,181.148"/>
	<text x="743.5" y="209.5" font-family="Times New Roman" font-size="20">,</text>
	<polygon stroke="black" stroke-width="1" points="709.683,126.644 600.317,52.356"/>
	<polygon fill="black" stroke-width="1" points="600.317,52.356 604.125,60.988 609.744,52.715"/>
	<text x="660.5" y="80.5" font-family="Times New Roman" font-size="20">num</text>
</svg>

